<?xml version="1.0" encoding="UTF-8"?>
<svg id="Layer_1" xmlns="http://www.w3.org/2000/svg" viewBox="0 0 245.45 118.75">
  <defs>
    <style>
      .cls-1 {
        fill: #00203e;
      }
    </style>
  </defs>
  <polygon class="cls-1" points="214.01 73.06 214.01 118 219.48 118 219.48 95.59 235.12 118 242.19 118 224.38 93.79 240.83 73.06 234.19 73.06 219.48 92.12 219.48 73.06 214.01 73.06 214.01 73.06"/>
  <polygon class="cls-1" points="0 77.53 10.74 77.53 10.74 118 15.58 118 15.58 77.53 26.32 77.53 26.32 73.06 0 73.06 0 77.53 0 77.53"/>
  <polygon class="cls-1" points="38.12 118 38.12 73.06 33.28 73.06 33.28 118 38.12 118 38.12 118"/>
  <polygon class="cls-1" points="68.22 118 68.22 113.91 50.46 113.91 50.46 96.4 68.22 96.4 68.22 92.31 50.46 92.31 50.46 77.16 68.22 77.16 68.22 73.06 45.62 73.06 45.62 118 68.22 118 68.22 118"/>
  <polygon class="cls-1" points="81.03 118 81.03 96.4 96.92 96.4 96.92 92.31 81.03 92.31 81.03 77.16 96.92 77.16 96.92 73.06 76.19 73.06 76.19 118 81.03 118 81.03 118"/>
  <path class="cls-1" d="M103.73,118h14.83c7.7,0,13.22-4.59,13.22-12.42,0-6.02-3.6-10.43-8.57-10.86v-.12c4.16-1.18,6.52-4.72,6.52-10.37,0-6.83-5.22-11.17-12.54-11.17h-13.47v44.94h0ZM108.57,96.84h8.01c7.08,0,9.99,3.41,9.99,8.63,0,6.45-4.22,8.44-8.81,8.44h-9.19v-17.07h0ZM108.57,77.16h7.76c5.46,0,8.19,2.98,8.19,7.94s-3.1,7.64-8.32,7.64h-7.64v-15.58h0Z"/>
  <polygon class="cls-1" points="160.2 118 160.2 113.91 143.06 113.91 143.06 73.06 138.22 73.06 138.22 118 160.2 118 160.2 118"/>
  <polygon class="cls-1" points="170.6 118 170.6 73.06 165.76 73.06 165.76 118 170.6 118 170.6 118"/>
  <path class="cls-1" d="M207.58,89.57c-.06-9.19-5.15-17.26-15.02-17.26-10.37,0-15.58,9.87-15.58,23.22s5.21,23.21,15.33,23.21,15.27-7.08,15.27-16.26h-4.84c-.43,7.82-3.6,12.16-10.06,12.16s-10.49-7.07-10.49-19.12c0-12.66,3.6-19.12,10.49-19.12s9.99,7.2,10.18,13.16h4.72Z"/>
  <path class="cls-1" d="M137.49,19.56v2.03s.22,2.35.22,2.35l-1.42,3.28-2.04,3.17c-.43.45-1.05.84-1.85,1.16l.23.77-.77.73-2.94,2.46-1.3.82-.53.54c-.4.48-1.13.85-2.19,1.1l-5.19,1.82-1.36-.79-.47.37-2.31-.84-1.17-.14-.9-.33-.41-.92-1.48-1.2-.83-.97-.7.06-.55-1.57.32-.19-.44-1.25-.41.04-.62-3.27-.12-.41c.5-.51.75-.92.72-1.22l-.39-1.58-.16-.94,1.65-.56.7-1.51.47-1.74,1.25-1.39.58-.96.85-.78,3.32-3.32,1.27-.73.2-.6,1.31-.69,3.17-.82c.43-.09,1.31-.53,2.62-1.31l.85.26,2.86.49,1.2.43c1.12-.13,1.65.08,1.82.34l1.29,2,1.69.81,1.5,3.43.47,1.58h0Z"/>
  <path class="cls-1" d="M113.21.49l1.79-.1,4.22-.4,1.7.72,1.04-.29c.73-.14,1.32.05,1.76.58l2.65.2,3.06.79,2.64.16.84.43,2.39.59.77.52,1.85.19,1.34,1.47,2.81,1.69,1.95,1.6,2.25.95,2.61,2.4,1.71,1.23c.6.47.96,1.01,1.07,1.6.06.3,0,.69-.19,1.17-.29-.06-.44-.08-.44-.08l-1.8.94-1.01-.22-1.65-.48-.94-.91-.93-2.6-1.06-1.35-.86-.51-1.57-1.34-2.31-1.28-2.45-2.01-2.16-.47-5.03-1.84-2.87-.24-2.25-.32-1.15.14-4.68-.06-2.84.98-.71.22-.96.02-.81-.26-2.89,1.15h-.93s-2.54,1.22-2.54,1.22l-1.17.06-3.08,1.94-1.4.36-2.39,2.02-1.25.49-1.35,1.06-.5.27h-.42s-.34.4-.34.4l-1.19.15-.78.32-1.37,2.71-2.04,2.08-1.15,1.44c-.61-.22-1.03-.31-1.27-.26-.54.11-.81.38-.81.83l.16,1.69-1.31,3.03c-.15.53-.14,1.44.03,2.73l.12,1.03c-.52.52-1.02.87-1.52,1.06l-.29-.2-1.99-.03c-.39.44-1.82-.16-2.2-.08-.33.06-1.14-.3-2.44-1.08l.4-1.21.88-1.98.89-2.57.48-.98c.09-.53.43-1.31,1.02-2.35l.48-.77.32-.06.78-1.2,1.77-2.16.46-.68,1.24-1.21.54.61.32-.06c-.03-.72.15-1.33.53-1.83.85-1.12,2.14-2.13,3.87-3.03l1.73-.84,2.53-1.72.75-.48.29.19.89.04.16-.49.57.35.11-.74,1.37-.52,2.95-1.71,2.82-.63,1.04-.71,1.53-.13,2.79-.79,2.02-.22.98-.36h0Z"/>
  <path class="cls-1" d="M133.27,49.39l-1.79.13-4.21.47-1.71-.69-1.03.31c-.73.15-1.32-.03-1.77-.56l-2.65-.16-3.07-.74-2.64-.11-.85-.41-2.4-.55-.78-.51-1.85-.16-1.36-1.44-2.84-1.64-1.98-1.57-2.27-.91-2.65-2.35-1.73-1.19c-.6-.46-.97-.99-1.1-1.58-.06-.29,0-.69.17-1.18.29.05.44.08.44.08l1.78-.97,1.01.21,1.66.45.95.9.97,2.58,1.09,1.33.87.49,1.59,1.31,2.33,1.24,2.49,1.97,2.16.43,5.06,1.76,2.87.19,2.26.28,1.15-.16,4.68-.02,2.82-1.02.71-.23.97-.04.81.25,2.87-1.2.93-.03,2.52-1.25,1.17-.08,3.04-2,1.4-.38,2.35-2.06,1.24-.52,1.33-1.09.49-.27h.42s.34-.41.34-.41l1.19-.17.77-.33,1.32-2.73,2-2.12,1.13-1.47c.61.21,1.03.29,1.28.24.54-.11.8-.39.79-.84l-.19-1.69,1.25-3.06c.14-.54.12-1.44-.07-2.73l-.13-1.03c.51-.53,1.01-.89,1.5-1.08l.29.19,1.58-.32,1.35.19c.38-.45.88.25,1.26.17.32-.07,1.14.28,2.46,1.04l-.37,1.22-.84,2-.84,2.59-.47.99c-.09.53-.41,1.31-.98,2.36l-.47.78-.32.07-.76,1.22-1.73,2.19-.44.68-1.22,1.23-.55-.6-.32.07c.04.72-.13,1.33-.5,1.84-.83,1.13-2.1,2.17-3.82,3.09l-1.72.87-2.5,1.76-.74.49-.29-.19-.89-.02-.15.49-.58-.34-.1.74-1.36.54-2.92,1.76-2.81.68-1.03.73-1.53.16-2.78.84-2.01.26-.98.38h0Z"/>
  <path class="cls-1" d="M239.54,94.5h.96l1.41,2.43h1.02l-1.43-2.45c.67-.11,1.3-.53,1.3-1.54,0-1.08-.66-1.59-1.97-1.59h-2.13v5.57h.85v-2.43h0ZM239.54,92.05h1.17c.88,0,1.23.36,1.23.84,0,.71-.41.92-1.38.92h-1.02v-1.76h0ZM240.56,98.96c2.64,0,4.89-2.04,4.89-4.84s-2.25-4.81-4.89-4.81-4.91,2.04-4.91,4.81,2.26,4.84,4.91,4.84h0ZM244.47,94.13c0,2.32-1.7,4.04-3.91,4.04s-3.93-1.71-3.93-4.04,1.7-4.01,3.93-4.01,3.91,1.74,3.91,4.01h0Z"/>
</svg>